<?xml version="1.0" encoding="UTF-8" standalone="no"?>
<!DOCTYPE svg PUBLIC "-//W3C//DTD SVG 1.1//EN" "http://www.w3.org/Graphics/SVG/1.1/DTD/svg11.dtd">
<svg width="100%" height="100%" viewBox="0 0 56 56" version="1.1" xmlns="http://www.w3.org/2000/svg" xmlns:xlink="http://www.w3.org/1999/xlink" xml:space="preserve" xmlns:serif="http://www.serif.com/" style="fill-rule:evenodd;clip-rule:evenodd;stroke-linejoin:round;stroke-miterlimit:2;">
    <path d="M56,12L56,44C56,50.623 50.623,56 44,56L12,56C5.377,56 0,50.623 0,44L0,12C0,5.377 5.377,0 12,0L44,0C50.623,0 56,5.377 56,12Z" style="fill:rgb(85,88,166);"/>
    <g transform="matrix(3.651515,0,0,3.651515,-75.380556,-36.45723)">
        <path d="M23.032,21.852L26.152,13.452L30.472,13.452L33.592,21.852L30.16,21.852L29.764,20.544L26.884,20.544L26.464,21.852L23.032,21.852ZM27.796,17.652L27.532,18.48L29.152,18.48L28.9,17.652L28.468,15.84L28.252,15.84L27.796,17.652Z" style="fill:white;fill-rule:nonzero;"/>
    </g>
</svg>
