<?xml version="1.0" encoding="UTF-8" standalone="no"?>
<!DOCTYPE svg PUBLIC "-//W3C//DTD SVG 1.1//EN" "http://www.w3.org/Graphics/SVG/1.1/DTD/svg11.dtd">
<svg width="100%" height="100%" viewBox="0 0 56 56" version="1.1" xmlns="http://www.w3.org/2000/svg" xmlns:xlink="http://www.w3.org/1999/xlink" xml:space="preserve" xmlns:serif="http://www.serif.com/" style="fill-rule:evenodd;clip-rule:evenodd;stroke-linejoin:round;stroke-miterlimit:2;">
    <g transform="matrix(0.749064,0,0,0.749064,-5.147331,18.13661)">
        <path d="M12.212,16.318L15.332,7.918L19.652,7.918L22.772,16.318L19.34,16.318L18.944,15.01L16.064,15.01L15.644,16.318L12.212,16.318ZM16.976,12.118L16.712,12.946L18.332,12.946L18.08,12.118L17.648,10.306L17.432,10.306L16.976,12.118Z" style="fill:rgb(41,41,41);fill-rule:nonzero;"/>
        <path d="M23.072,18.718L23.072,10.318L26.072,10.318L26.072,11.434L26.168,11.434C26.376,11.01 26.66,10.686 27.02,10.462C27.38,10.238 27.792,10.126 28.256,10.126C28.768,10.126 29.226,10.25 29.63,10.498C30.034,10.746 30.354,11.09 30.59,11.53C30.826,11.97 30.944,12.478 30.944,13.054L30.944,13.582C30.944,14.15 30.826,14.654 30.59,15.094C30.354,15.534 30.034,15.88 29.63,16.132C29.226,16.384 28.768,16.51 28.256,16.51C27.8,16.51 27.394,16.398 27.038,16.174C26.682,15.95 26.4,15.65 26.192,15.274L26.192,18.718L23.072,18.718ZM27.02,14.338C27.252,14.338 27.448,14.264 27.608,14.116C27.768,13.968 27.848,13.79 27.848,13.582L27.848,13.054C27.848,12.846 27.768,12.668 27.608,12.52C27.448,12.372 27.252,12.298 27.02,12.298C26.78,12.298 26.582,12.372 26.426,12.52C26.27,12.668 26.192,12.846 26.192,13.054L26.192,13.582C26.192,13.79 26.27,13.968 26.426,14.116C26.582,14.264 26.78,14.338 27.02,14.338Z" style="fill:rgb(41,41,41);fill-rule:nonzero;"/>
        <path d="M39.02,10.318L39.02,16.318L36.02,16.318L36.02,14.758L35.924,14.758C35.804,15.398 35.546,15.85 35.15,16.114C34.754,16.378 34.304,16.51 33.8,16.51C33.408,16.51 33.036,16.428 32.684,16.264C32.332,16.1 32.048,15.84 31.832,15.484C31.616,15.128 31.508,14.666 31.508,14.098L31.508,10.318L34.628,10.318L34.628,13.246C34.628,13.51 34.682,13.72 34.79,13.876C34.898,14.032 35.052,14.11 35.252,14.11C35.444,14.11 35.6,14.032 35.72,13.876C35.84,13.72 35.9,13.51 35.9,13.246L35.9,10.318L39.02,10.318Z" style="fill:rgb(41,41,41);fill-rule:nonzero;"/>
        <path d="M39.836,16.318L39.836,10.318L42.836,10.318L42.836,11.878L42.932,11.878C43.052,11.238 43.31,10.786 43.706,10.522C44.102,10.258 44.552,10.126 45.056,10.126C45.456,10.126 45.83,10.208 46.178,10.372C46.526,10.536 46.808,10.794 47.024,11.146C47.24,11.498 47.348,11.962 47.348,12.538L47.348,16.318L44.228,16.318L44.228,13.39C44.228,13.126 44.174,12.916 44.066,12.76C43.958,12.604 43.804,12.526 43.604,12.526C43.412,12.526 43.256,12.604 43.136,12.76C43.016,12.916 42.956,13.126 42.956,13.39L42.956,16.318L39.836,16.318Z" style="fill:rgb(41,41,41);fill-rule:nonzero;"/>
        <path d="M47.816,12.598L47.816,10.318L48.776,10.318L48.776,9.118L51.896,7.918L51.896,10.318L53.516,10.318L53.516,12.598L51.896,12.598L51.896,13.606C51.896,13.83 51.96,13.99 52.088,14.086C52.216,14.182 52.372,14.23 52.556,14.23C52.708,14.23 52.868,14.206 53.036,14.158C53.204,14.11 53.364,14.05 53.516,13.978L53.516,16.102C53.156,16.238 52.802,16.34 52.454,16.408C52.106,16.476 51.772,16.51 51.452,16.51C50.94,16.51 50.482,16.42 50.078,16.24C49.674,16.06 49.356,15.788 49.124,15.424C48.892,15.06 48.776,14.61 48.776,14.074L48.776,12.598L47.816,12.598Z" style="fill:rgb(41,41,41);fill-rule:nonzero;"/>
        <path d="M56.624,16.51C56.12,16.51 55.664,16.386 55.256,16.138C54.848,15.89 54.526,15.544 54.29,15.1C54.054,14.656 53.936,14.15 53.936,13.582L53.936,13.054C53.936,12.478 54.054,11.97 54.29,11.53C54.526,11.09 54.848,10.746 55.256,10.498C55.664,10.25 56.12,10.126 56.624,10.126C57.088,10.126 57.5,10.238 57.86,10.462C58.22,10.686 58.504,11.01 58.712,11.434L58.808,11.434L58.808,10.318L61.808,10.318L61.808,16.318L58.808,16.318L58.808,15.202L58.712,15.202C58.504,15.626 58.22,15.95 57.86,16.174C57.5,16.398 57.088,16.51 56.624,16.51ZM57.86,14.338C58.1,14.338 58.298,14.264 58.454,14.116C58.61,13.968 58.688,13.79 58.688,13.582L58.688,13.054C58.688,12.846 58.61,12.668 58.454,12.52C58.298,12.372 58.1,12.298 57.86,12.298C57.636,12.298 57.442,12.372 57.278,12.52C57.114,12.668 57.032,12.846 57.032,13.054L57.032,13.582C57.032,13.79 57.114,13.968 57.278,14.116C57.442,14.264 57.636,14.338 57.86,14.338Z" style="fill:rgb(41,41,41);fill-rule:nonzero;"/>
        <path d="M63.32,16.318L63.32,12.598L62.36,12.598L62.36,10.318L63.32,10.318C63.32,9.822 63.406,9.408 63.578,9.076C63.75,8.744 63.98,8.48 64.268,8.284C64.556,8.088 64.884,7.946 65.252,7.858C65.62,7.77 66,7.726 66.392,7.726C66.688,7.726 66.982,7.746 67.274,7.786C67.566,7.826 67.848,7.882 68.12,7.954L68.12,9.766C67.872,9.702 67.618,9.666 67.358,9.658C67.098,9.65 66.88,9.692 66.704,9.784C66.528,9.876 66.44,10.054 66.44,10.318L68.12,10.318L68.12,12.598L66.44,12.598L66.44,16.318L63.32,16.318Z" style="fill:rgb(41,41,41);fill-rule:nonzero;"/>
        <path d="M70.568,18.91C70.312,18.91 70.018,18.888 69.686,18.844C69.354,18.8 69.012,18.722 68.66,18.61L68.66,16.594C68.892,16.666 69.124,16.732 69.356,16.792C69.588,16.852 69.808,16.882 70.016,16.882C70.152,16.882 70.28,16.866 70.4,16.834C70.52,16.802 70.632,16.746 70.736,16.666L68.18,10.318L71.408,10.318L72.212,12.934L73.052,10.318L76.292,10.318L73.604,16.942C73.324,17.638 72.93,18.14 72.422,18.448C71.914,18.756 71.296,18.91 70.568,18.91Z" style="fill:rgb(41,41,41);fill-rule:nonzero;"/>
    </g>
</svg>
