<?xml version="1.0" encoding="UTF-8" standalone="no"?>
<!DOCTYPE svg PUBLIC "-//W3C//DTD SVG 1.1//EN" "http://www.w3.org/Graphics/SVG/1.1/DTD/svg11.dtd">
<svg width="100%" height="100%" viewBox="0 0 567 107" version="1.1" xmlns="http://www.w3.org/2000/svg" xmlns:xlink="http://www.w3.org/1999/xlink" xml:space="preserve" xmlns:serif="http://www.serif.com/" style="fill-rule:evenodd;clip-rule:evenodd;stroke-linejoin:round;stroke-miterlimit:2;">
    <g transform="matrix(6.521412,0,0,6.289187,6.717203,-2.556508)">
        <path d="M21.818,11.903L24.938,3.503L29.258,3.503L32.378,11.903L28.946,11.903L28.55,10.595L25.67,10.595L25.25,11.903L21.818,11.903ZM26.582,7.703L26.318,8.531L27.938,8.531L27.686,7.703L27.254,5.891L27.038,5.891L26.582,7.703Z" style="fill:white;fill-rule:nonzero;"/>
        <path d="M32.678,14.303L32.678,5.903L35.678,5.903L35.678,7.019L35.774,7.019C35.982,6.595 36.266,6.271 36.626,6.047C36.986,5.823 37.398,5.711 37.862,5.711C38.374,5.711 38.832,5.835 39.236,6.083C39.64,6.331 39.96,6.675 40.196,7.115C40.432,7.555 40.55,8.063 40.55,8.639L40.55,9.167C40.55,9.735 40.432,10.239 40.196,10.679C39.96,11.119 39.64,11.465 39.236,11.717C38.832,11.969 38.374,12.095 37.862,12.095C37.406,12.095 37,11.983 36.644,11.759C36.288,11.535 36.006,11.235 35.798,10.859L35.798,14.303L32.678,14.303ZM36.626,9.923C36.858,9.923 37.054,9.849 37.214,9.701C37.374,9.553 37.454,9.375 37.454,9.167L37.454,8.639C37.454,8.431 37.374,8.253 37.214,8.105C37.054,7.957 36.858,7.883 36.626,7.883C36.386,7.883 36.188,7.957 36.032,8.105C35.876,8.253 35.798,8.431 35.798,8.639L35.798,9.167C35.798,9.375 35.876,9.553 36.032,9.701C36.188,9.849 36.386,9.923 36.626,9.923Z" style="fill:white;fill-rule:nonzero;"/>
        <path d="M48.626,5.903L48.626,11.903L45.626,11.903L45.626,10.343L45.53,10.343C45.41,10.983 45.152,11.435 44.756,11.699C44.36,11.963 43.91,12.095 43.406,12.095C43.014,12.095 42.642,12.013 42.29,11.849C41.938,11.685 41.654,11.425 41.438,11.069C41.222,10.713 41.114,10.251 41.114,9.683L41.114,5.903L44.234,5.903L44.234,8.831C44.234,9.095 44.288,9.305 44.396,9.461C44.504,9.617 44.658,9.695 44.858,9.695C45.05,9.695 45.206,9.617 45.326,9.461C45.446,9.305 45.506,9.095 45.506,8.831L45.506,5.903L48.626,5.903Z" style="fill:white;fill-rule:nonzero;"/>
        <path d="M49.442,11.903L49.442,5.903L52.442,5.903L52.442,7.463L52.538,7.463C52.658,6.823 52.916,6.371 53.312,6.107C53.708,5.843 54.158,5.711 54.662,5.711C55.062,5.711 55.436,5.793 55.784,5.957C56.132,6.121 56.414,6.379 56.63,6.731C56.846,7.083 56.954,7.547 56.954,8.123L56.954,11.903L53.834,11.903L53.834,8.975C53.834,8.711 53.78,8.501 53.672,8.345C53.564,8.189 53.41,8.111 53.21,8.111C53.018,8.111 52.862,8.189 52.742,8.345C52.622,8.501 52.562,8.711 52.562,8.975L52.562,11.903L49.442,11.903Z" style="fill:white;fill-rule:nonzero;"/>
        <path d="M57.422,8.183L57.422,5.903L58.382,5.903L58.382,4.703L61.502,3.503L61.502,5.903L63.122,5.903L63.122,8.183L61.502,8.183L61.502,9.191C61.502,9.415 61.566,9.575 61.694,9.671C61.822,9.767 61.978,9.815 62.162,9.815C62.314,9.815 62.474,9.791 62.642,9.743C62.81,9.695 62.97,9.635 63.122,9.563L63.122,11.687C62.762,11.823 62.408,11.925 62.06,11.993C61.712,12.061 61.378,12.095 61.058,12.095C60.546,12.095 60.088,12.005 59.684,11.825C59.28,11.645 58.962,11.373 58.73,11.009C58.498,10.645 58.382,10.195 58.382,9.659L58.382,8.183L57.422,8.183Z" style="fill:white;fill-rule:nonzero;"/>
        <path d="M66.23,12.095C65.726,12.095 65.27,11.971 64.862,11.723C64.454,11.475 64.132,11.129 63.896,10.685C63.66,10.241 63.542,9.735 63.542,9.167L63.542,8.639C63.542,8.063 63.66,7.555 63.896,7.115C64.132,6.675 64.454,6.331 64.862,6.083C65.27,5.835 65.726,5.711 66.23,5.711C66.694,5.711 67.106,5.823 67.466,6.047C67.826,6.271 68.11,6.595 68.318,7.019L68.414,7.019L68.414,5.903L71.414,5.903L71.414,11.903L68.414,11.903L68.414,10.787L68.318,10.787C68.11,11.211 67.826,11.535 67.466,11.759C67.106,11.983 66.694,12.095 66.23,12.095ZM67.466,9.923C67.706,9.923 67.904,9.849 68.06,9.701C68.216,9.553 68.294,9.375 68.294,9.167L68.294,8.639C68.294,8.431 68.216,8.253 68.06,8.105C67.904,7.957 67.706,7.883 67.466,7.883C67.242,7.883 67.048,7.957 66.884,8.105C66.72,8.253 66.638,8.431 66.638,8.639L66.638,9.167C66.638,9.375 66.72,9.553 66.884,9.701C67.048,9.849 67.242,9.923 67.466,9.923Z" style="fill:white;fill-rule:nonzero;"/>
        <path d="M72.926,11.903L72.926,8.183L71.966,8.183L71.966,5.903L72.926,5.903C72.926,5.407 73.012,4.993 73.184,4.661C73.356,4.329 73.586,4.065 73.874,3.869C74.162,3.673 74.49,3.531 74.858,3.443C75.226,3.355 75.606,3.311 75.998,3.311C76.294,3.311 76.588,3.331 76.88,3.371C77.172,3.411 77.454,3.467 77.726,3.539L77.726,5.351C77.478,5.287 77.224,5.251 76.964,5.243C76.704,5.235 76.486,5.277 76.31,5.369C76.134,5.461 76.046,5.639 76.046,5.903L77.726,5.903L77.726,8.183L76.046,8.183L76.046,11.903L72.926,11.903Z" style="fill:white;fill-rule:nonzero;"/>
        <path d="M80.174,14.495C79.918,14.495 79.624,14.473 79.292,14.429C78.96,14.385 78.618,14.307 78.266,14.195L78.266,12.179C78.498,12.251 78.73,12.317 78.962,12.377C79.194,12.437 79.414,12.467 79.622,12.467C79.758,12.467 79.886,12.451 80.006,12.419C80.126,12.387 80.238,12.331 80.342,12.251L77.786,5.903L81.014,5.903L81.818,8.519L82.658,5.903L85.898,5.903L83.21,12.527C82.93,13.223 82.536,13.725 82.028,14.033C81.52,14.341 80.902,14.495 80.174,14.495Z" style="fill:white;fill-rule:nonzero;"/>
    </g>
    <path d="M29.46,5.05L29.46,13.45C29.46,16.237 27.197,18.5 24.41,18.5L24.4,18.5C21.613,18.5 19.35,16.237 19.35,13.45L19.35,5.05C19.35,2.263 21.613,0 24.4,0L24.41,0C27.197,0 29.46,2.263 29.46,5.05Z" style="fill:white;"/>
    <path d="M78.42,5.05L78.42,13.45C78.42,16.237 76.157,18.5 73.37,18.5L73.36,18.5C70.573,18.5 68.31,16.237 68.31,13.45L68.31,5.05C68.31,2.263 70.573,0 73.36,0L73.37,0C76.157,0 78.42,2.263 78.42,5.05Z" style="fill:white;"/>
    <path d="M11,9.1L14,9.1L14,13.45C14.022,19.145 18.705,23.824 24.4,23.84C30.094,23.824 34.774,19.144 34.79,13.45L34.79,9.1L63,9.1L63,13.45C63.016,19.132 67.678,23.807 73.36,23.84C79.054,23.824 83.734,19.144 83.75,13.45L83.75,9.1L86.75,9.1C92.784,9.1 97.75,14.066 97.75,20.1L97.75,95.91C97.75,101.944 92.784,106.91 86.75,106.91L48.54,106.91L0,58.33L0,20.07C-0,14.036 4.966,9.07 11,9.07L11,9.1ZM68.21,33.64L29.31,33.64C26.567,33.64 24.31,35.897 24.31,38.64L24.31,77.54C24.31,80.283 26.567,82.54 29.31,82.54L61.1,82.54L73.24,94.74L73.24,38.67C73.24,38.66 73.24,38.65 73.24,38.64C73.24,35.897 70.983,33.64 68.24,33.64C68.23,33.64 68.22,33.64 68.21,33.64Z" style="fill:white;fill-rule:nonzero;"/>
    <path d="M48.54,58.33L0,58.33L48.54,106.87L48.54,58.33Z" style="fill:rgb(36,146,235);fill-rule:nonzero;"/>
</svg>
