<?xml version="1.0" encoding="UTF-8" standalone="no"?>
<!DOCTYPE svg PUBLIC "-//W3C//DTD SVG 1.1//EN" "http://www.w3.org/Graphics/SVG/1.1/DTD/svg11.dtd">
<svg width="100%" height="100%" viewBox="0 0 189 40" version="1.1" xmlns="http://www.w3.org/2000/svg" xmlns:xlink="http://www.w3.org/1999/xlink" xml:space="preserve" xmlns:serif="http://www.serif.com/" style="fill-rule:evenodd;clip-rule:evenodd;">
    <path d="M185,0.5L4,0.5C2.067,0.5 0.5,2.067 0.5,4L0.5,36C0.5,37.933 2.067,39.5 4,39.5L185,39.5C186.933,39.5 188.5,37.933 188.5,36L188.5,4C188.5,2.067 186.933,0.5 185,0.5Z" style="fill:white;fill-rule:nonzero;"/>
    <path d="M185,0.5L4,0.5C2.067,0.5 0.5,2.067 0.5,4L0.5,36C0.5,37.933 2.067,39.5 4,39.5L185,39.5C186.933,39.5 188.5,37.933 188.5,36L188.5,4C188.5,2.067 186.933,0.5 185,0.5Z" style="fill:none;fill-rule:nonzero;stroke:rgb(116,119,117);stroke-width:1px;"/>
    <g transform="matrix(1,0,0,1,-4.900689,7.815701)">
        <path d="M30.682,17.112C29.73,17.112 28.864,16.886 28.085,16.433C27.305,15.981 26.692,15.367 26.244,14.592C25.796,13.818 25.572,12.968 25.572,12.044C25.572,11.111 25.789,10.255 26.223,9.475C26.657,8.696 27.261,8.08 28.036,7.627C28.81,7.175 29.692,6.948 30.682,6.948C31.475,6.948 32.159,7.072 32.733,7.319C33.307,7.567 33.818,7.956 34.266,8.488L32.88,9.692C32.292,9.076 31.559,8.768 30.682,8.768C30.066,8.768 29.524,8.915 29.058,9.209C28.591,9.503 28.232,9.9 27.98,10.399C27.728,10.899 27.602,11.447 27.602,12.044C27.602,12.642 27.73,13.188 27.987,13.682C28.243,14.177 28.607,14.569 29.079,14.858C29.55,15.148 30.098,15.292 30.724,15.292C31.638,15.292 32.385,14.975 32.964,14.34L34.392,15.558C34,16.034 33.489,16.412 32.859,16.692C32.229,16.972 31.503,17.112 30.682,17.112Z" style="fill-rule:nonzero;"/>
        <path d="M38.242,17.112C37.504,17.112 36.842,16.942 36.254,16.601C35.666,16.261 35.204,15.799 34.868,15.215C34.532,14.632 34.364,13.995 34.364,13.304C34.364,12.614 34.532,11.974 34.868,11.386C35.204,10.798 35.666,10.334 36.254,9.993C36.842,9.653 37.504,9.482 38.242,9.482C38.979,9.482 39.642,9.653 40.23,9.993C40.818,10.334 41.28,10.798 41.616,11.386C41.952,11.974 42.12,12.614 42.12,13.304C42.12,13.995 41.952,14.632 41.616,15.215C41.28,15.799 40.818,16.261 40.23,16.601C39.642,16.942 38.979,17.112 38.242,17.112ZM36.254,13.304C36.254,13.687 36.335,14.037 36.499,14.354C36.662,14.672 36.895,14.924 37.199,15.11C37.502,15.297 37.85,15.39 38.242,15.39C38.634,15.39 38.981,15.297 39.285,15.11C39.588,14.924 39.821,14.672 39.985,14.354C40.148,14.037 40.23,13.687 40.23,13.304C40.23,12.922 40.146,12.572 39.978,12.254C39.81,11.937 39.576,11.683 39.278,11.491C38.979,11.3 38.634,11.204 38.242,11.204C37.85,11.204 37.504,11.3 37.206,11.491C36.907,11.683 36.674,11.937 36.506,12.254C36.338,12.572 36.254,12.922 36.254,13.304Z" style="fill-rule:nonzero;"/>
        <path d="M42.96,9.65L44.822,9.65L44.822,10.714C45.204,9.893 45.946,9.482 47.048,9.482C47.57,9.482 48.042,9.606 48.462,9.853C48.882,10.101 49.213,10.451 49.456,10.903C49.698,11.356 49.82,11.881 49.82,12.478L49.82,16.93L47.93,16.93L47.93,12.94C47.93,12.334 47.79,11.881 47.51,11.582C47.23,11.284 46.847,11.134 46.362,11.134C45.932,11.134 45.573,11.286 45.284,11.589C44.994,11.893 44.85,12.343 44.85,12.94L44.85,16.93L42.96,16.93L42.96,9.65Z" style="fill-rule:nonzero;"/>
        <path d="M53.502,16.93C52.764,16.93 52.209,16.748 51.836,16.384C51.462,16.02 51.276,15.451 51.276,14.676L51.276,11.26L50.254,11.26L50.254,9.65L51.276,9.65L51.276,8.18L53.166,7.984L53.166,9.65L54.706,9.65L54.706,11.26L53.166,11.26L53.166,14.578C53.166,15.026 53.362,15.25 53.754,15.25L54.538,15.25L54.538,16.93L53.502,16.93Z" style="fill-rule:nonzero;"/>
        <path d="M55.336,9.65L57.226,9.65L57.226,16.93L55.336,16.93L55.336,9.65ZM55.14,7.928C55.14,7.62 55.249,7.359 55.469,7.144C55.688,6.93 55.956,6.822 56.274,6.822C56.6,6.822 56.871,6.93 57.086,7.144C57.3,7.359 57.408,7.62 57.408,7.928C57.408,8.246 57.3,8.512 57.086,8.726C56.871,8.941 56.6,9.048 56.274,9.048C55.956,9.048 55.688,8.939 55.469,8.719C55.249,8.5 55.14,8.236 55.14,7.928Z" style="fill-rule:nonzero;"/>
        <path d="M58.346,9.65L60.208,9.65L60.208,10.714C60.59,9.893 61.332,9.482 62.434,9.482C62.956,9.482 63.428,9.606 63.848,9.853C64.268,10.101 64.599,10.451 64.842,10.903C65.084,11.356 65.206,11.881 65.206,12.478L65.206,16.93L63.316,16.93L63.316,12.94C63.316,12.334 63.176,11.881 62.896,11.582C62.616,11.284 62.233,11.134 61.748,11.134C61.318,11.134 60.959,11.286 60.67,11.589C60.38,11.893 60.236,12.343 60.236,12.94L60.236,16.93L58.346,16.93L58.346,9.65Z" style="fill-rule:nonzero;"/>
        <path d="M68.958,17.098C68.435,17.098 67.964,16.975 67.544,16.727C67.124,16.48 66.792,16.13 66.55,15.677C66.307,15.225 66.186,14.7 66.186,14.102L66.186,9.65L68.076,9.65L68.076,13.64C68.076,14.844 68.561,15.446 69.532,15.446C69.961,15.446 70.32,15.295 70.61,14.991C70.899,14.688 71.044,14.238 71.044,13.64L71.044,9.65L72.934,9.65L72.934,16.93L71.1,16.93L71.1,15.838C70.922,16.268 70.661,16.585 70.316,16.79C69.97,16.996 69.518,17.098 68.958,17.098Z" style="fill-rule:nonzero;"/>
        <path d="M77.372,17.112C76.718,17.112 76.116,16.942 75.566,16.601C75.015,16.261 74.579,15.801 74.257,15.222C73.935,14.644 73.774,14.009 73.774,13.318C73.774,12.628 73.935,11.991 74.257,11.407C74.579,10.824 75.015,10.36 75.566,10.014C76.116,9.669 76.718,9.496 77.372,9.496C77.969,9.496 78.452,9.608 78.821,9.832C79.189,10.056 79.476,10.378 79.682,10.798L79.682,9.65L81.558,9.65L81.558,16.93L79.724,16.93L79.724,15.74C79.509,16.179 79.217,16.517 78.849,16.755C78.48,16.993 77.988,17.112 77.372,17.112ZM75.664,13.304C75.664,13.678 75.75,14.025 75.923,14.347C76.095,14.669 76.333,14.926 76.637,15.117C76.94,15.309 77.288,15.404 77.68,15.404C78.081,15.404 78.438,15.311 78.751,15.124C79.063,14.938 79.304,14.686 79.472,14.368C79.64,14.051 79.724,13.701 79.724,13.318C79.724,12.936 79.64,12.583 79.472,12.261C79.304,11.939 79.063,11.683 78.751,11.491C78.438,11.3 78.081,11.204 77.68,11.204C77.288,11.204 76.938,11.3 76.63,11.491C76.322,11.683 76.084,11.937 75.916,12.254C75.748,12.572 75.664,12.922 75.664,13.304Z" style="fill-rule:nonzero;"/>
        <path d="M82.678,9.65L84.512,9.65L84.512,11.036C84.642,10.504 84.897,10.103 85.275,9.832C85.653,9.562 86.15,9.445 86.766,9.482L86.766,11.26L86.5,11.26C85.94,11.26 85.478,11.435 85.114,11.785C84.75,12.135 84.568,12.609 84.568,13.206L84.568,16.93L82.678,16.93L82.678,9.65Z" style="fill-rule:nonzero;"/>
        <path d="M93.038,17.112C92.356,17.112 91.729,16.942 91.155,16.601C90.581,16.261 90.126,15.796 89.79,15.208C89.454,14.62 89.286,13.981 89.286,13.29C89.286,12.59 89.454,11.949 89.79,11.365C90.126,10.782 90.592,10.32 91.19,9.979C91.787,9.639 92.454,9.468 93.192,9.468C93.836,9.468 94.414,9.587 94.928,9.825C95.441,10.063 95.852,10.397 96.16,10.826L94.704,12.016C94.536,11.764 94.316,11.564 94.046,11.414C93.775,11.265 93.481,11.19 93.164,11.19C92.772,11.19 92.426,11.286 92.128,11.477C91.829,11.669 91.596,11.923 91.428,12.24C91.26,12.558 91.176,12.908 91.176,13.29C91.176,13.664 91.262,14.011 91.435,14.333C91.607,14.655 91.848,14.912 92.156,15.103C92.464,15.295 92.814,15.39 93.206,15.39C93.551,15.39 93.85,15.316 94.102,15.166C94.354,15.017 94.582,14.802 94.788,14.522L96.16,15.712C95.432,16.646 94.391,17.112 93.038,17.112Z" style="fill-rule:nonzero;"/>
        <path d="M100.038,17.112C99.3,17.112 98.638,16.942 98.05,16.601C97.462,16.261 97,15.799 96.664,15.215C96.328,14.632 96.16,13.995 96.16,13.304C96.16,12.614 96.328,11.974 96.664,11.386C97,10.798 97.462,10.334 98.05,9.993C98.638,9.653 99.3,9.482 100.038,9.482C100.775,9.482 101.438,9.653 102.026,9.993C102.614,10.334 103.076,10.798 103.412,11.386C103.748,11.974 103.916,12.614 103.916,13.304C103.916,13.995 103.748,14.632 103.412,15.215C103.076,15.799 102.614,16.261 102.026,16.601C101.438,16.942 100.775,17.112 100.038,17.112ZM98.05,13.304C98.05,13.687 98.131,14.037 98.295,14.354C98.458,14.672 98.691,14.924 98.995,15.11C99.298,15.297 99.646,15.39 100.038,15.39C100.43,15.39 100.777,15.297 101.081,15.11C101.384,14.924 101.617,14.672 101.781,14.354C101.944,14.037 102.026,13.687 102.026,13.304C102.026,12.922 101.942,12.572 101.774,12.254C101.606,11.937 101.372,11.683 101.074,11.491C100.775,11.3 100.43,11.204 100.038,11.204C99.646,11.204 99.3,11.3 99.002,11.491C98.703,11.683 98.47,11.937 98.302,12.254C98.134,12.572 98.05,12.922 98.05,13.304Z" style="fill-rule:nonzero;"/>
        <path d="M104.756,9.65L106.618,9.65L106.618,10.714C107,9.893 107.742,9.482 108.844,9.482C109.366,9.482 109.838,9.606 110.258,9.853C110.678,10.101 111.009,10.451 111.252,10.903C111.494,11.356 111.616,11.881 111.616,12.478L111.616,16.93L109.726,16.93L109.726,12.94C109.726,12.334 109.586,11.881 109.306,11.582C109.026,11.284 108.643,11.134 108.158,11.134C107.728,11.134 107.369,11.286 107.08,11.589C106.79,11.893 106.646,12.343 106.646,12.94L106.646,16.93L104.756,16.93L104.756,9.65Z" style="fill-rule:nonzero;"/>
        <path d="M118.14,7.13L119.834,7.13L123.824,16.93L121.696,16.93L121.024,15.068L116.936,15.068L116.264,16.93L114.136,16.93L118.14,7.13ZM120.38,13.374L119.33,10.7C119.171,10.29 119.054,9.916 118.98,9.58C118.858,10.047 118.742,10.42 118.63,10.7L117.58,13.374L120.38,13.374Z" style="fill-rule:nonzero;"/>
        <path d="M124.118,9.65L125.98,9.65L125.98,10.826C126.194,10.397 126.484,10.068 126.848,9.839C127.212,9.611 127.697,9.496 128.304,9.496C128.957,9.496 129.559,9.669 130.11,10.014C130.66,10.36 131.097,10.824 131.419,11.407C131.741,11.991 131.902,12.628 131.902,13.318C131.902,14.009 131.741,14.644 131.419,15.222C131.097,15.801 130.66,16.261 130.11,16.601C129.559,16.942 128.957,17.112 128.304,17.112C127.716,17.112 127.237,17.003 126.869,16.783C126.5,16.564 126.213,16.254 126.008,15.852L126.008,19.73L124.118,19.73L124.118,9.65ZM125.952,13.318C125.952,13.701 126.036,14.051 126.204,14.368C126.372,14.686 126.612,14.938 126.925,15.124C127.237,15.311 127.594,15.404 127.996,15.404C128.388,15.404 128.735,15.309 129.039,15.117C129.342,14.926 129.58,14.669 129.753,14.347C129.925,14.025 130.012,13.678 130.012,13.304C130.012,12.922 129.928,12.572 129.76,12.254C129.592,11.937 129.354,11.683 129.046,11.491C128.738,11.3 128.388,11.204 127.996,11.204C127.594,11.204 127.237,11.3 126.925,11.491C126.612,11.683 126.372,11.939 126.204,12.261C126.036,12.583 125.952,12.936 125.952,13.318Z" style="fill-rule:nonzero;"/>
        <path d="M135.444,17.098C134.921,17.098 134.45,16.975 134.03,16.727C133.61,16.48 133.278,16.13 133.036,15.677C132.793,15.225 132.672,14.7 132.672,14.102L132.672,9.65L134.562,9.65L134.562,13.64C134.562,14.844 135.047,15.446 136.018,15.446C136.447,15.446 136.806,15.295 137.096,14.991C137.385,14.688 137.53,14.238 137.53,13.64L137.53,9.65L139.42,9.65L139.42,16.93L137.586,16.93L137.586,15.838C137.408,16.268 137.147,16.585 136.802,16.79C136.456,16.996 136.004,17.098 135.444,17.098Z" style="fill-rule:nonzero;"/>
        <path d="M140.54,9.65L142.402,9.65L142.402,10.714C142.784,9.893 143.526,9.482 144.628,9.482C145.15,9.482 145.622,9.606 146.042,9.853C146.462,10.101 146.793,10.451 147.036,10.903C147.278,11.356 147.4,11.881 147.4,12.478L147.4,16.93L145.51,16.93L145.51,12.94C145.51,12.334 145.37,11.881 145.09,11.582C144.81,11.284 144.427,11.134 143.942,11.134C143.512,11.134 143.153,11.286 142.864,11.589C142.574,11.893 142.43,12.343 142.43,12.94L142.43,16.93L140.54,16.93L140.54,9.65Z" style="fill-rule:nonzero;"/>
        <path d="M151.082,16.93C150.344,16.93 149.789,16.748 149.416,16.384C149.042,16.02 148.856,15.451 148.856,14.676L148.856,11.26L147.834,11.26L147.834,9.65L148.856,9.65L148.856,8.18L150.746,7.984L150.746,9.65L152.286,9.65L152.286,11.26L150.746,11.26L150.746,14.578C150.746,15.026 150.942,15.25 151.334,15.25L152.118,15.25L152.118,16.93L151.082,16.93Z" style="fill-rule:nonzero;"/>
        <path d="M156.038,17.112C155.384,17.112 154.782,16.942 154.232,16.601C153.681,16.261 153.245,15.801 152.923,15.222C152.601,14.644 152.44,14.009 152.44,13.318C152.44,12.628 152.601,11.991 152.923,11.407C153.245,10.824 153.681,10.36 154.232,10.014C154.782,9.669 155.384,9.496 156.038,9.496C156.635,9.496 157.118,9.608 157.487,9.832C157.855,10.056 158.142,10.378 158.348,10.798L158.348,9.65L160.224,9.65L160.224,16.93L158.39,16.93L158.39,15.74C158.175,16.179 157.883,16.517 157.515,16.755C157.146,16.993 156.654,17.112 156.038,17.112ZM154.33,13.304C154.33,13.678 154.416,14.025 154.589,14.347C154.761,14.669 154.999,14.926 155.303,15.117C155.606,15.309 155.954,15.404 156.346,15.404C156.747,15.404 157.104,15.311 157.417,15.124C157.729,14.938 157.97,14.686 158.138,14.368C158.306,14.051 158.39,13.701 158.39,13.318C158.39,12.936 158.306,12.583 158.138,12.261C157.97,11.939 157.729,11.683 157.417,11.491C157.104,11.3 156.747,11.204 156.346,11.204C155.954,11.204 155.604,11.3 155.296,11.491C154.988,11.683 154.75,11.937 154.582,12.254C154.414,12.572 154.33,12.922 154.33,13.304Z" style="fill-rule:nonzero;"/>
        <path d="M161.876,9.16C161.876,8.423 162.095,7.83 162.534,7.382C162.972,6.934 163.56,6.71 164.298,6.71L165.082,6.71L165.082,8.32L164.592,8.32C164.041,8.32 163.766,8.61 163.766,9.188L163.766,9.65L165.25,9.65L165.25,11.26L163.766,11.26L163.766,16.93L161.876,16.93L161.876,11.26L160.854,11.26L160.854,9.65L161.876,9.65L161.876,9.16Z" style="fill-rule:nonzero;"/>
        <path d="M166.776,19.856C166.253,19.856 165.833,19.81 165.516,19.716L165.796,17.91C166.057,17.976 166.342,18.008 166.65,18.008C166.995,18.008 167.287,17.908 167.525,17.707C167.763,17.507 167.938,17.238 168.05,16.902L168.148,16.594L165.264,9.65L167.546,9.65L168.96,13.808C169.09,14.163 169.193,14.55 169.268,14.97C169.342,14.55 169.445,14.163 169.576,13.808L170.99,9.65L173.23,9.65L170.01,17.392C169.674,18.186 169.251,18.795 168.743,19.219C168.234,19.644 167.578,19.856 166.776,19.856Z" style="fill-rule:nonzero;"/>
    </g>
</svg>
